<mxfile host="app.diagrams.net" modified="2021-10-28T09:50:05.153Z" agent="5.0 (Macintosh; Intel Mac OS X 10_15_7) AppleWebKit/537.36 (KHTML, like Gecko) Chrome/95.0.4638.54 Safari/537.36" etag="m1KvZHYMWB5G4S9kFl2h" version="15.5.9" type="github">
  <diagram id="AvowDiVXP_LdViHBowUd" name="Page-1">
    <mxGraphModel dx="946" dy="508" grid="0" gridSize="10" guides="1" tooltips="1" connect="1" arrows="1" fold="1" page="1" pageScale="1" pageWidth="827" pageHeight="1169" math="0" shadow="0">
      <root>
        <mxCell id="0" />
        <mxCell id="1" parent="0" />
        <mxCell id="4CZf3HNKgoPariVdmfcr-1" value="XMDS" style="whiteSpace=wrap;html=1;fontSize=18;fillColor=#5D7F99;strokeColor=#D0CEE2;fontColor=#1A1A1A;sketch=1;rounded=1;" parent="1" vertex="1">
          <mxGeometry x="190" y="300" width="180" height="70" as="geometry" />
        </mxCell>
        <mxCell id="4CZf3HNKgoPariVdmfcr-2" value="Data Pool" style="whiteSpace=wrap;html=1;fontSize=18;fillColor=#5D7F99;strokeColor=#D0CEE2;fontColor=#1A1A1A;sketch=1;rounded=1;" parent="1" vertex="1">
          <mxGeometry x="390" y="300" width="180" height="70" as="geometry" />
        </mxCell>
        <mxCell id="4CZf3HNKgoPariVdmfcr-3" value="XClient（with XCache）" style="whiteSpace=wrap;html=1;fontSize=18;fillColor=#5D7F99;strokeColor=#D0CEE2;fontColor=#1A1A1A;sketch=1;rounded=1;" parent="1" vertex="1">
          <mxGeometry x="190" y="220" width="380" height="60" as="geometry" />
        </mxCell>
        <mxCell id="4CZf3HNKgoPariVdmfcr-5" value="Gateway" style="whiteSpace=wrap;html=1;fontSize=18;fillColor=#5D7F99;strokeColor=#D0CEE2;fontColor=#1A1A1A;sketch=1;rounded=1;" parent="1" vertex="1">
          <mxGeometry x="190" y="140" width="380" height="60" as="geometry" />
        </mxCell>
        <mxCell id="CgmuScELUENcyFXCBc1W-1" value="APP" style="shape=cylinder3;whiteSpace=wrap;html=1;boundedLbl=1;backgroundOutline=1;size=15;fillColor=#f5f5f5;strokeColor=#666666;sketch=1;fontColor=#333333;rounded=1;" vertex="1" parent="1">
          <mxGeometry x="240" y="510" width="130" height="60" as="geometry" />
        </mxCell>
        <mxCell id="CgmuScELUENcyFXCBc1W-3" value="" style="whiteSpace=wrap;html=1;fillColor=#e1d5e7;strokeColor=#9673a6;sketch=1;rounded=1;" vertex="1" parent="1">
          <mxGeometry x="180" y="770" width="290" height="110" as="geometry" />
        </mxCell>
        <mxCell id="CgmuScELUENcyFXCBc1W-4" value="" style="ellipse;whiteSpace=wrap;html=1;fillColor=#f8cecc;strokeColor=#b85450;sketch=1;rounded=1;" vertex="1" parent="1">
          <mxGeometry x="190" y="610" width="430" height="120" as="geometry" />
        </mxCell>
        <mxCell id="CgmuScELUENcyFXCBc1W-5" value="文件数据" style="whiteSpace=wrap;html=1;fillColor=#fff2cc;strokeColor=#d6b656;sketch=1;rounded=1;" vertex="1" parent="1">
          <mxGeometry x="220" y="840" width="210" height="20" as="geometry" />
        </mxCell>
        <mxCell id="CgmuScELUENcyFXCBc1W-8" value="元数据" style="shape=cube;whiteSpace=wrap;html=1;boundedLbl=1;backgroundOutline=1;darkOpacity=0.05;darkOpacity2=0.1;size=10;fillColor=#fff2cc;strokeColor=#d6b656;sketch=1;rounded=1;" vertex="1" parent="1">
          <mxGeometry x="390" y="655" width="60" height="30" as="geometry" />
        </mxCell>
        <mxCell id="CgmuScELUENcyFXCBc1W-12" value="" style="whiteSpace=wrap;html=1;fillColor=#e1d5e7;strokeColor=#9673a6;sketch=1;rounded=1;" vertex="1" parent="1">
          <mxGeometry x="490" y="770" width="130" height="110" as="geometry" />
        </mxCell>
        <mxCell id="CgmuScELUENcyFXCBc1W-13" value="元数据" style="shape=cube;whiteSpace=wrap;html=1;boundedLbl=1;backgroundOutline=1;darkOpacity=0.05;darkOpacity2=0.1;size=10;fillColor=#fff2cc;strokeColor=#d6b656;sketch=1;rounded=1;" vertex="1" parent="1">
          <mxGeometry x="525" y="835" width="60" height="30" as="geometry" />
        </mxCell>
        <mxCell id="CgmuScELUENcyFXCBc1W-9" value="第一次&lt;br&gt;获取" style="endArrow=classic;html=1;sketch=1;curved=1;" edge="1" parent="1" source="CgmuScELUENcyFXCBc1W-13">
          <mxGeometry x="0.4764" y="1" width="50" height="50" relative="1" as="geometry">
            <mxPoint x="315" y="830" as="sourcePoint" />
            <mxPoint x="310" y="570" as="targetPoint" />
            <Array as="points">
              <mxPoint x="420" y="660" />
            </Array>
            <mxPoint as="offset" />
          </mxGeometry>
        </mxCell>
        <mxCell id="CgmuScELUENcyFXCBc1W-10" value="租约过期" style="endArrow=classic;html=1;entryX=0;entryY=0;entryDx=25;entryDy=0;exitX=0;exitY=0;exitDx=60;exitDy=20;exitPerimeter=0;entryPerimeter=0;dashed=1;sketch=1;curved=1;" edge="1" parent="1" source="CgmuScELUENcyFXCBc1W-8" target="CgmuScELUENcyFXCBc1W-13">
          <mxGeometry width="50" height="50" relative="1" as="geometry">
            <mxPoint x="120" y="640" as="sourcePoint" />
            <mxPoint x="170" y="590" as="targetPoint" />
            <Array as="points">
              <mxPoint x="610" y="690" />
              <mxPoint x="640" y="760" />
            </Array>
          </mxGeometry>
        </mxCell>
        <mxCell id="CgmuScELUENcyFXCBc1W-14" value="映射" style="endArrow=none;dashed=1;html=1;dashPattern=1 3;strokeWidth=2;entryX=0;entryY=0;entryDx=0;entryDy=10;entryPerimeter=0;exitX=1;exitY=0.5;exitDx=0;exitDy=0;sketch=1;curved=1;" edge="1" parent="1" source="CgmuScELUENcyFXCBc1W-5" target="CgmuScELUENcyFXCBc1W-13">
          <mxGeometry width="50" height="50" relative="1" as="geometry">
            <mxPoint x="450" y="900" as="sourcePoint" />
            <mxPoint x="500" y="850" as="targetPoint" />
          </mxGeometry>
        </mxCell>
        <mxCell id="CgmuScELUENcyFXCBc1W-15" value="第二次&lt;br&gt;获取" style="endArrow=classic;html=1;entryX=0.855;entryY=1;entryDx=0;entryDy=-4.35;entryPerimeter=0;exitX=0.683;exitY=-0.1;exitDx=0;exitDy=0;exitPerimeter=0;sketch=1;curved=1;" edge="1" parent="1" source="CgmuScELUENcyFXCBc1W-8" target="CgmuScELUENcyFXCBc1W-1">
          <mxGeometry width="50" height="50" relative="1" as="geometry">
            <mxPoint x="415" y="655" as="sourcePoint" />
            <mxPoint x="305" y="570" as="targetPoint" />
            <Array as="points">
              <mxPoint x="410" y="580" />
            </Array>
          </mxGeometry>
        </mxCell>
        <mxCell id="CgmuScELUENcyFXCBc1W-16" value="Cache" style="text;html=1;strokeColor=none;fillColor=none;align=center;verticalAlign=middle;whiteSpace=wrap;sketch=1;rounded=1;" vertex="1" parent="1">
          <mxGeometry x="260" y="650" width="60" height="30" as="geometry" />
        </mxCell>
        <mxCell id="CgmuScELUENcyFXCBc1W-17" value="Data Pool" style="text;html=1;strokeColor=none;fillColor=none;align=center;verticalAlign=middle;whiteSpace=wrap;sketch=1;rounded=1;" vertex="1" parent="1">
          <mxGeometry x="230" y="780" width="60" height="30" as="geometry" />
        </mxCell>
        <mxCell id="CgmuScELUENcyFXCBc1W-18" value="XMDS" style="text;html=1;strokeColor=none;fillColor=none;align=center;verticalAlign=middle;whiteSpace=wrap;sketch=1;rounded=1;" vertex="1" parent="1">
          <mxGeometry x="525" y="780" width="60" height="30" as="geometry" />
        </mxCell>
      </root>
    </mxGraphModel>
  </diagram>
</mxfile>
